<svg xmlns="http://www.w3.org/2000/svg" xmlns:xlink="http://www.w3.org/1999/xlink" viewBox="0 0 292.39 349.26"><defs><style>.cls-1{fill:url(#linear-gradient);}.cls-2{fill:url(#linear-gradient-2);}.cls-3{fill:url(#linear-gradient-3);}.cls-4{fill:url(#linear-gradient-4);}.cls-5{fill:url(#linear-gradient-5);}.cls-6{fill:url(#linear-gradient-6);}.cls-7{font-size:40px;fill:#262626;font-family:Prompt-BoldItalic, Prompt;font-weight:700;font-style:italic;letter-spacing:0.05em;}</style><linearGradient id="linear-gradient" x1="4.85" y1="78.18" x2="205.84" y2="20.63" gradientTransform="translate(51.53 -42.96) rotate(15)" gradientUnits="userSpaceOnUse"><stop offset="0" stop-color="#ff5e63"/><stop offset="0.82" stop-color="#736ffe"/></linearGradient><linearGradient id="linear-gradient-2" x1="54.07" y1="-31.83" x2="51.91" y2="217.16" gradientTransform="translate(51.53 -42.96) rotate(15)" gradientUnits="userSpaceOnUse"><stop offset="0.35" stop-color="#736ffe"/><stop offset="0.45" stop-color="#9a6ad3"/><stop offset="0.58" stop-color="#c565a3"/><stop offset="0.7" stop-color="#e56180"/><stop offset="0.79" stop-color="#f85f6b"/><stop offset="0.85" stop-color="#ff5e63"/></linearGradient><linearGradient id="linear-gradient-3" x1="-44.15" y1="315.92" x2="226.24" y2="307.4" gradientTransform="translate(51.53 -42.96) rotate(15)" gradientUnits="userSpaceOnUse"><stop offset="0.13" stop-color="#736ffe"/><stop offset="0.85" stop-color="#ff5e63"/></linearGradient><linearGradient id="linear-gradient-4" x1="204.29" y1="374.18" x2="208.52" y2="152.76" gradientTransform="translate(51.53 -42.96) rotate(15)" gradientUnits="userSpaceOnUse"><stop offset="0.13" stop-color="#736ffe"/><stop offset="0.26" stop-color="#996ad4"/><stop offset="0.48" stop-color="#d06497"/><stop offset="0.64" stop-color="#f26071"/><stop offset="0.73" stop-color="#ff5e63"/></linearGradient><linearGradient id="linear-gradient-5" x1="83.42" y1="234.76" x2="117.29" y2="312.78" gradientTransform="translate(309.11 69.46) rotate(65.61)" xlink:href="#linear-gradient-3"/><linearGradient id="linear-gradient-6" x1="86.47" y1="67.88" x2="355.4" y2="50.66" xlink:href="#linear-gradient-3"/></defs><g id="Livello_2" data-name="Livello 2"><g id="OBJECT"><path class="cls-1" d="M174.15,28.37h0a12.26,12.26,0,0,1-15,8.67l-41.9-11.23A30.4,30.4,0,0,0,80,47.31l-4.93,18.4L49.39,58.83,54,41.69A56.23,56.23,0,0,1,122.85,1.93l42.63,11.42A12.27,12.27,0,0,1,174.15,28.37Z"/><path class="cls-2" d="M118,26h0A31.2,31.2,0,0,0,79.79,48.07L62.45,112.8a13.29,13.29,0,0,1-16.28,9.4h0a13.29,13.29,0,0,1-9.4-16.28L50.15,56a46.53,46.53,0,0,1,57-32.91Z"/><path class="cls-3" d="M42.15,323.41l89.29,23.92a56.23,56.23,0,0,0,68.87-39.76l4.59-17.14-25.68-6.88L174.29,302a30.41,30.41,0,0,1-37.24,21.5l-85-22.76a35.79,35.79,0,0,1-25.31-43.83l4.62-17.23a12.39,12.39,0,0,0-8.77-15.18h0a12.39,12.39,0,0,0-15.18,8.77L2,253.78A56.86,56.86,0,0,0,42.15,323.41Z"/><path class="cls-4" d="M136.29,323.25h0a31.2,31.2,0,0,0,38.21-22.06l17.34-64.73a13.29,13.29,0,0,1,16.28-9.4h0a13.29,13.29,0,0,1,9.4,16.28l-13.38,49.91a46.53,46.53,0,0,1-57,32.91Z"/><circle class="cls-5" cx="100.68" cy="274.51" r="20.62" transform="translate(-190.91 252.85) rotate(-65.61)"/><path class="cls-6" d="M227,15.79,192.25,43.58a2.27,2.27,0,0,0-.85,2c.9,8.47,8.39,57.52,63,78.77a2.29,2.29,0,0,0,2.25-.35l34.9-27.88a2.29,2.29,0,0,0-1.17-4.07l-29-3.24a2.29,2.29,0,0,1-2-2.52l3.54-31.65a2.28,2.28,0,0,0-2-2.53l-32.11-3.6a2.28,2.28,0,0,1-2-2.59l4-28A2.29,2.29,0,0,0,227,15.79Z"/></g><g id="TEXT"><text class="cls-7" transform="translate(0.26 184.79)">PHONE KING</text></g></g></svg>